<?xml version="1.0" standalone="no"?>
<!DOCTYPE svg PUBLIC "-//W3C//DTD SVG 20010904//EN"
 "http://www.w3.org/TR/2001/REC-SVG-20010904/DTD/svg10.dtd">
<svg version="1.0" xmlns="http://www.w3.org/2000/svg"
 width="452.000000pt" height="452.000000pt" viewBox="0 0 452.000000 452.000000"
 preserveAspectRatio="xMidYMid meet">
<metadata>
Created by potrace 1.11, written by Peter Selinger 2001-2013
</metadata>
<g transform="translate(0.000000,452.000000) scale(0.100000,-0.100000)"
fill="#000000" stroke="none">
<path d="M543 2260 l-1 -2080 1202 0 1201 1 -30 22 c-26 19 -119 95 -177 145
-14 12 -160 14 -1015 14 l-999 0 0 1898 0 1898 1535 -1 1536 -2 0 -1133 0
-1132 85 5 c47 2 88 4 91 5 4 0 7 549 7 1220 l-1 1220 -1717 0 -1717 0 0
-2080z"/>
<path d="M1178 3240 c-2 -8 -4 -49 -3 -90 l0 -75 180 0 180 0 2 90 1 90 -178
0 c-152 0 -179 -2 -182 -15z"/>
<path d="M1820 3250 c-9 -6 -13 -42 -11 -121 l1 -56 765 0 c536 1 765 4 768
11 3 10 1 152 -2 166 -1 7 -1510 7 -1521 0z"/>
<path d="M1893 2712 l-83 -3 0 -89 0 -90 765 0 c421 0 766 3 766 8 1 4 2 44 3
90 l2 82 -80 0 c-45 0 -353 1 -686 3 -333 1 -642 1 -687 -1z"/>
<path d="M1176 2628 c1 -46 2 -86 3 -90 0 -5 81 -8 179 -8 l178 0 0 88 -1 87
-180 3 -181 2 2 -82z"/>
<path d="M1179 2163 c-1 -5 -2 -45 -3 -90 l-2 -83 181 0 182 0 0 90 0 90 -178
0 c-99 0 -180 -3 -180 -7z"/>
<path d="M1810 2080 l0 -90 764 0 c602 0 765 3 768 13 2 6 4 46 4 87 l-1 75
-768 3 -767 2 0 -90z"/>
<path d="M2982 1700 c-113 -27 -196 -74 -282 -160 -154 -154 -201 -343 -145
-578 19 -81 70 -191 126 -273 56 -82 190 -222 288 -299 67 -52 308 -220 316
-220 6 0 160 -110 196 -140 l36 -30 69 53 c38 29 152 108 254 176 102 68 219
151 260 184 207 167 330 333 390 522 29 92 36 256 14 339 -71 274 -314 452
-598 441 -118 -5 -217 -39 -316 -109 -25 -18 -50 -35 -56 -39 -7 -4 -29 7 -50
24 -133 106 -333 149 -502 109z m236 -174 c100 -27 167 -78 255 -193 27 -35
50 -63 51 -63 2 0 29 32 60 70 68 84 89 104 140 137 111 71 256 81 379 25 113
-52 200 -157 226 -274 14 -61 5 -183 -18 -254 -73 -226 -229 -385 -634 -645
l-149 -96 -112 70 c-258 162 -362 240 -473 353 -124 127 -186 235 -219 379
-12 50 -12 158 0 202 57 214 282 346 494 289z"/>
<path d="M1175 1540 c-1 -74 2 -90 15 -91 8 0 88 -1 178 -2 137 -2 163 0 166
13 2 8 3 49 2 90 l-1 75 -180 2 -180 2 0 -89z"/>
<path d="M1808 1567 c-1 -34 -2 -75 0 -92 l3 -30 287 2 c158 1 295 2 304 2 9
1 19 9 22 19 4 10 26 49 51 87 25 37 45 69 45 71 0 1 -159 3 -354 3 l-354 1
-4 -63z"/>
</g>
</svg>
